<svg width="372" height="55" viewBox="0 0 372 55" fill="none" xmlns="http://www.w3.org/2000/svg">
<path d="M26.85 17.2C26.85 19.2333 26.3833 21.1 25.45 22.8C24.5167 24.4667 23.0833 25.8167 21.15 26.85C19.2167 27.8833 16.8167 28.4 13.95 28.4H8.65V41H0.1V5.9H13.95C16.75 5.9 19.1167 6.38333 21.05 7.35C22.9833 8.31666 24.4333 9.65 25.4 11.35C26.3667 13.05 26.85 15 26.85 17.2ZM13.3 21.6C14.9333 21.6 16.15 21.2167 16.95 20.45C17.75 19.6833 18.15 18.6 18.15 17.2C18.15 15.8 17.75 14.7167 16.95 13.95C16.15 13.1833 14.9333 12.8 13.3 12.8H8.65V21.6H13.3ZM29.6012 27C29.6012 24.1333 30.1345 21.6167 31.2012 19.45C32.3012 17.2833 33.7845 15.6167 35.6512 14.45C37.5178 13.2833 39.6012 12.7 41.9012 12.7C43.8678 12.7 45.5845 13.1 47.0512 13.9C48.5512 14.7 49.7012 15.75 50.5012 17.05V13.1H59.0512V41H50.5012V37.05C49.6678 38.35 48.5012 39.4 47.0012 40.2C45.5345 41 43.8178 41.4 41.8512 41.4C39.5845 41.4 37.5178 40.8167 35.6512 39.65C33.7845 38.45 32.3012 36.7667 31.2012 34.6C30.1345 32.4 29.6012 29.8667 29.6012 27ZM50.5012 27.05C50.5012 24.9167 49.9012 23.2333 48.7012 22C47.5345 20.7667 46.1012 20.15 44.4012 20.15C42.7012 20.15 41.2512 20.7667 40.0512 22C38.8845 23.2 38.3012 24.8667 38.3012 27C38.3012 29.1333 38.8845 30.8333 40.0512 32.1C41.2512 33.3333 42.7012 33.95 44.4012 33.95C46.1012 33.95 47.5345 33.3333 48.7012 32.1C49.9012 30.8667 50.5012 29.1833 50.5012 27.05ZM63.5367 27.05C63.5367 24.15 64.1201 21.6167 65.2867 19.45C66.4867 17.2833 68.1367 15.6167 70.2367 14.45C72.3701 13.2833 74.8034 12.7 77.5367 12.7C81.0367 12.7 83.9534 13.6167 86.2867 15.45C88.6534 17.2833 90.2034 19.8667 90.9367 23.2H81.8367C81.0701 21.0667 79.5867 20 77.3867 20C75.8201 20 74.5701 20.6167 73.6367 21.85C72.7034 23.05 72.2367 24.7833 72.2367 27.05C72.2367 29.3167 72.7034 31.0667 73.6367 32.3C74.5701 33.5 75.8201 34.1 77.3867 34.1C79.5867 34.1 81.0701 33.0333 81.8367 30.9H90.9367C90.2034 34.1667 88.6534 36.7333 86.2867 38.6C83.9201 40.4667 81.0034 41.4 77.5367 41.4C74.8034 41.4 72.3701 40.8167 70.2367 39.65C68.1367 38.4833 66.4867 36.8167 65.2867 34.65C64.1201 32.4833 63.5367 29.95 63.5367 27.05ZM121.81 26.6C121.81 27.4 121.76 28.2333 121.66 29.1H102.31C102.443 30.8333 102.993 32.1667 103.96 33.1C104.96 34 106.177 34.45 107.61 34.45C109.743 34.45 111.227 33.55 112.06 31.75H121.16C120.693 33.5833 119.843 35.2333 118.61 36.7C117.41 38.1667 115.893 39.3167 114.06 40.15C112.227 40.9833 110.177 41.4 107.91 41.4C105.177 41.4 102.743 40.8167 100.61 39.65C98.4768 38.4833 96.8102 36.8167 95.6102 34.65C94.4102 32.4833 93.8102 29.95 93.8102 27.05C93.8102 24.15 94.3935 21.6167 95.5602 19.45C96.7602 17.2833 98.4268 15.6167 100.56 14.45C102.693 13.2833 105.143 12.7 107.91 12.7C110.61 12.7 113.01 13.2667 115.11 14.4C117.21 15.5333 118.843 17.15 120.01 19.25C121.21 21.35 121.81 23.8 121.81 26.6ZM113.06 24.35C113.06 22.8833 112.56 21.7167 111.56 20.85C110.56 19.9833 109.31 19.55 107.81 19.55C106.377 19.55 105.16 19.9667 104.16 20.8C103.193 21.6333 102.593 22.8167 102.36 24.35H113.06ZM145.466 34.4H156.666V41H136.916V5.9H145.466V34.4ZM187.045 26.6C187.045 27.4 186.995 28.2333 186.895 29.1H167.545C167.678 30.8333 168.228 32.1667 169.195 33.1C170.195 34 171.411 34.45 172.845 34.45C174.978 34.45 176.461 33.55 177.295 31.75H186.395C185.928 33.5833 185.078 35.2333 183.845 36.7C182.645 38.1667 181.128 39.3167 179.295 40.15C177.461 40.9833 175.411 41.4 173.145 41.4C170.411 41.4 167.978 40.8167 165.845 39.65C163.711 38.4833 162.045 36.8167 160.845 34.65C159.645 32.4833 159.045 29.95 159.045 27.05C159.045 24.15 159.628 21.6167 160.795 19.45C161.995 17.2833 163.661 15.6167 165.795 14.45C167.928 13.2833 170.378 12.7 173.145 12.7C175.845 12.7 178.245 13.2667 180.345 14.4C182.445 15.5333 184.078 17.15 185.245 19.25C186.445 21.35 187.045 23.8 187.045 26.6ZM178.295 24.35C178.295 22.8833 177.795 21.7167 176.795 20.85C175.795 19.9833 174.545 19.55 173.045 19.55C171.611 19.55 170.395 19.9667 169.395 20.8C168.428 21.6333 167.828 22.8167 167.595 24.35H178.295ZM189.855 27C189.855 24.1333 190.388 21.6167 191.455 19.45C192.555 17.2833 194.038 15.6167 195.905 14.45C197.772 13.2833 199.855 12.7 202.155 12.7C204.122 12.7 205.838 13.1 207.305 13.9C208.805 14.7 209.955 15.75 210.755 17.05V13.1H219.305V41H210.755V37.05C209.922 38.35 208.755 39.4 207.255 40.2C205.788 41 204.072 41.4 202.105 41.4C199.838 41.4 197.772 40.8167 195.905 39.65C194.038 38.45 192.555 36.7667 191.455 34.6C190.388 32.4 189.855 29.8667 189.855 27ZM210.755 27.05C210.755 24.9167 210.155 23.2333 208.955 22C207.788 20.7667 206.355 20.15 204.655 20.15C202.955 20.15 201.505 20.7667 200.305 22C199.138 23.2 198.555 24.8667 198.555 27C198.555 29.1333 199.138 30.8333 200.305 32.1C201.505 33.3333 202.955 33.95 204.655 33.95C206.355 33.95 207.788 33.3333 208.955 32.1C210.155 30.8667 210.755 29.1833 210.755 27.05ZM234.041 17.75C235.041 16.2167 236.291 15.0167 237.791 14.15C239.291 13.25 240.957 12.8 242.791 12.8V21.85H240.441C238.307 21.85 236.707 22.3167 235.641 23.25C234.574 24.15 234.041 25.75 234.041 28.05V41H225.491V13.1H234.041V17.75ZM263.877 12.8C267.144 12.8 269.744 13.8667 271.677 16C273.644 18.1 274.627 21 274.627 24.7V41H266.127V25.85C266.127 23.9833 265.644 22.5333 264.677 21.5C263.711 20.4667 262.411 19.95 260.777 19.95C259.144 19.95 257.844 20.4667 256.877 21.5C255.911 22.5333 255.427 23.9833 255.427 25.85V41H246.877V13.1H255.427V16.8C256.294 15.5667 257.461 14.6 258.927 13.9C260.394 13.1667 262.044 12.8 263.877 12.8ZM284.869 10.2C283.369 10.2 282.135 9.76666 281.169 8.9C280.235 8 279.769 6.9 279.769 5.6C279.769 4.26667 280.235 3.16666 281.169 2.3C282.135 1.4 283.369 0.949997 284.869 0.949997C286.335 0.949997 287.535 1.4 288.469 2.3C289.435 3.16666 289.919 4.26667 289.919 5.6C289.919 6.9 289.435 8 288.469 8.9C287.535 9.76666 286.335 10.2 284.869 10.2ZM289.119 13.1V41H280.569V13.1H289.119ZM312.315 12.8C315.582 12.8 318.182 13.8667 320.115 16C322.082 18.1 323.065 21 323.065 24.7V41H314.565V25.85C314.565 23.9833 314.082 22.5333 313.115 21.5C312.148 20.4667 310.848 19.95 309.215 19.95C307.582 19.95 306.282 20.4667 305.315 21.5C304.348 22.5333 303.865 23.9833 303.865 25.85V41H295.315V13.1H303.865V16.8C304.732 15.5667 305.898 14.6 307.365 13.9C308.832 13.1667 310.482 12.8 312.315 12.8ZM339.606 12.7C341.573 12.7 343.29 13.1 344.756 13.9C346.256 14.7 347.406 15.75 348.206 17.05V13.1H356.756V40.95C356.756 43.5167 356.24 45.8333 355.206 47.9C354.206 50 352.656 51.6667 350.556 52.9C348.49 54.1333 345.906 54.75 342.806 54.75C338.673 54.75 335.323 53.7667 332.756 51.8C330.19 49.8667 328.723 47.2333 328.356 43.9H336.806C337.073 44.9667 337.706 45.8 338.706 46.4C339.706 47.0333 340.94 47.35 342.406 47.35C344.173 47.35 345.573 46.8333 346.606 45.8C347.673 44.8 348.206 43.1833 348.206 40.95V37C347.373 38.3 346.223 39.3667 344.756 40.2C343.29 41 341.573 41.4 339.606 41.4C337.306 41.4 335.223 40.8167 333.356 39.65C331.49 38.45 330.006 36.7667 328.906 34.6C327.84 32.4 327.306 29.8667 327.306 27C327.306 24.1333 327.84 21.6167 328.906 19.45C330.006 17.2833 331.49 15.6167 333.356 14.45C335.223 13.2833 337.306 12.7 339.606 12.7ZM348.206 27.05C348.206 24.9167 347.606 23.2333 346.406 22C345.24 20.7667 343.806 20.15 342.106 20.15C340.406 20.15 338.956 20.7667 337.756 22C336.59 23.2 336.006 24.8667 336.006 27C336.006 29.1333 336.59 30.8333 337.756 32.1C338.956 33.3333 340.406 33.95 342.106 33.95C343.806 33.95 345.24 33.3333 346.406 32.1C347.606 30.8667 348.206 29.1833 348.206 27.05ZM366.942 41.4C365.442 41.4 364.208 40.9667 363.242 40.1C362.308 39.2 361.842 38.1 361.842 36.8C361.842 35.4667 362.308 34.35 363.242 33.45C364.208 32.55 365.442 32.1 366.942 32.1C368.408 32.1 369.608 32.55 370.542 33.45C371.508 34.35 371.992 35.4667 371.992 36.8C371.992 38.1 371.508 39.2 370.542 40.1C369.608 40.9667 368.408 41.4 366.942 41.4Z" fill="white"/>
</svg>
