<svg width="298" height="44" viewBox="0 0 298 44" fill="none" xmlns="http://www.w3.org/2000/svg">
<path d="M21.88 13.96C21.88 15.5867 21.5067 17.08 20.76 18.44C20.0133 19.7733 18.8667 20.8533 17.32 21.68C15.7733 22.5067 13.8533 22.92 11.56 22.92H7.32V33H0.48V4.92H11.56C13.8 4.92 15.6933 5.30667 17.24 6.08C18.7867 6.85333 19.9467 7.92 20.72 9.28C21.4933 10.64 21.88 12.2 21.88 13.96ZM11.04 17.48C12.3467 17.48 13.32 17.1733 13.96 16.56C14.6 15.9467 14.92 15.08 14.92 13.96C14.92 12.84 14.6 11.9733 13.96 11.36C13.32 10.7467 12.3467 10.44 11.04 10.44H7.32V17.48H11.04ZM24.0809 21.8C24.0809 19.5067 24.5076 17.4933 25.3609 15.76C26.2409 14.0267 27.4276 12.6933 28.9209 11.76C30.4143 10.8267 32.0809 10.36 33.9209 10.36C35.4943 10.36 36.8676 10.68 38.0409 11.32C39.2409 11.96 40.1609 12.8 40.8009 13.84V10.68H47.6409V33H40.8009V29.84C40.1343 30.88 39.2009 31.72 38.0009 32.36C36.8276 33 35.4543 33.32 33.8809 33.32C32.0676 33.32 30.4143 32.8533 28.9209 31.92C27.4276 30.96 26.2409 29.6133 25.3609 27.88C24.5076 26.12 24.0809 24.0933 24.0809 21.8ZM40.8009 21.84C40.8009 20.1333 40.3209 18.7867 39.3609 17.8C38.4276 16.8133 37.2809 16.32 35.9209 16.32C34.5609 16.32 33.4009 16.8133 32.4409 17.8C31.5076 18.76 31.0409 20.0933 31.0409 21.8C31.0409 23.5067 31.5076 24.8667 32.4409 25.88C33.4009 26.8667 34.5609 27.36 35.9209 27.36C37.2809 27.36 38.4276 26.8667 39.3609 25.88C40.3209 24.8933 40.8009 23.5467 40.8009 21.84ZM51.2294 21.84C51.2294 19.52 51.696 17.4933 52.6294 15.76C53.5894 14.0267 54.9094 12.6933 56.5894 11.76C58.296 10.8267 60.2427 10.36 62.4294 10.36C65.2294 10.36 67.5627 11.0933 69.4294 12.56C71.3227 14.0267 72.5627 16.0933 73.1494 18.76H65.8694C65.256 17.0533 64.0694 16.2 62.3094 16.2C61.056 16.2 60.056 16.6933 59.3094 17.68C58.5627 18.64 58.1894 20.0267 58.1894 21.84C58.1894 23.6533 58.5627 25.0533 59.3094 26.04C60.056 27 61.056 27.48 62.3094 27.48C64.0694 27.48 65.256 26.6267 65.8694 24.92H73.1494C72.5627 27.5333 71.3227 29.5867 69.4294 31.08C67.536 32.5733 65.2027 33.32 62.4294 33.32C60.2427 33.32 58.296 32.8533 56.5894 31.92C54.9094 30.9867 53.5894 29.6533 52.6294 27.92C51.696 26.1867 51.2294 24.16 51.2294 21.84ZM97.8481 21.48C97.8481 22.12 97.8081 22.7867 97.7281 23.48H82.2481C82.3548 24.8667 82.7948 25.9333 83.5681 26.68C84.3681 27.4 85.3415 27.76 86.4881 27.76C88.1948 27.76 89.3815 27.04 90.0481 25.6H97.3281C96.9548 27.0667 96.2748 28.3867 95.2881 29.56C94.3281 30.7333 93.1148 31.6533 91.6481 32.32C90.1815 32.9867 88.5415 33.32 86.7281 33.32C84.5415 33.32 82.5948 32.8533 80.8881 31.92C79.1815 30.9867 77.8481 29.6533 76.8881 27.92C75.9281 26.1867 75.4481 24.16 75.4481 21.84C75.4481 19.52 75.9148 17.4933 76.8481 15.76C77.8081 14.0267 79.1415 12.6933 80.8481 11.76C82.5548 10.8267 84.5148 10.36 86.7281 10.36C88.8881 10.36 90.8081 10.8133 92.4881 11.72C94.1681 12.6267 95.4748 13.92 96.4081 15.6C97.3681 17.28 97.8481 19.24 97.8481 21.48ZM90.8481 19.68C90.8481 18.5067 90.4481 17.5733 89.6481 16.88C88.8481 16.1867 87.8481 15.84 86.6481 15.84C85.5015 15.84 84.5281 16.1733 83.7281 16.84C82.9548 17.5067 82.4748 18.4533 82.2881 19.68H90.8481ZM116.773 27.72H125.733V33H109.933V4.92H116.773V27.72ZM150.036 21.48C150.036 22.12 149.996 22.7867 149.916 23.48H134.436C134.542 24.8667 134.982 25.9333 135.756 26.68C136.556 27.4 137.529 27.76 138.676 27.76C140.382 27.76 141.569 27.04 142.236 25.6H149.516C149.142 27.0667 148.462 28.3867 147.476 29.56C146.516 30.7333 145.302 31.6533 143.836 32.32C142.369 32.9867 140.729 33.32 138.916 33.32C136.729 33.32 134.782 32.8533 133.076 31.92C131.369 30.9867 130.036 29.6533 129.076 27.92C128.116 26.1867 127.636 24.16 127.636 21.84C127.636 19.52 128.102 17.4933 129.036 15.76C129.996 14.0267 131.329 12.6933 133.036 11.76C134.742 10.8267 136.702 10.36 138.916 10.36C141.076 10.36 142.996 10.8133 144.676 11.72C146.356 12.6267 147.662 13.92 148.596 15.6C149.556 17.28 150.036 19.24 150.036 21.48ZM143.036 19.68C143.036 18.5067 142.636 17.5733 141.836 16.88C141.036 16.1867 140.036 15.84 138.836 15.84C137.689 15.84 136.716 16.1733 135.916 16.84C135.142 17.5067 134.662 18.4533 134.476 19.68H143.036ZM152.284 21.8C152.284 19.5067 152.711 17.4933 153.564 15.76C154.444 14.0267 155.631 12.6933 157.124 11.76C158.617 10.8267 160.284 10.36 162.124 10.36C163.697 10.36 165.071 10.68 166.244 11.32C167.444 11.96 168.364 12.8 169.004 13.84V10.68H175.844V33H169.004V29.84C168.337 30.88 167.404 31.72 166.204 32.36C165.031 33 163.657 33.32 162.084 33.32C160.271 33.32 158.617 32.8533 157.124 31.92C155.631 30.96 154.444 29.6133 153.564 27.88C152.711 26.12 152.284 24.0933 152.284 21.8ZM169.004 21.84C169.004 20.1333 168.524 18.7867 167.564 17.8C166.631 16.8133 165.484 16.32 164.124 16.32C162.764 16.32 161.604 16.8133 160.644 17.8C159.711 18.76 159.244 20.0933 159.244 21.8C159.244 23.5067 159.711 24.8667 160.644 25.88C161.604 26.8667 162.764 27.36 164.124 27.36C165.484 27.36 166.631 26.8667 167.564 25.88C168.524 24.8933 169.004 23.5467 169.004 21.84ZM187.633 14.4C188.433 13.1733 189.433 12.2133 190.633 11.52C191.833 10.8 193.166 10.44 194.633 10.44V17.68H192.753C191.046 17.68 189.766 18.0533 188.913 18.8C188.059 19.52 187.633 20.8 187.633 22.64V33H180.793V10.68H187.633V14.4ZM211.502 10.44C214.115 10.44 216.195 11.2933 217.742 13C219.315 14.68 220.102 17 220.102 19.96V33H213.302V20.88C213.302 19.3867 212.915 18.2267 212.142 17.4C211.369 16.5733 210.329 16.16 209.022 16.16C207.715 16.16 206.675 16.5733 205.902 17.4C205.129 18.2267 204.742 19.3867 204.742 20.88V33H197.902V10.68H204.742V13.64C205.435 12.6533 206.369 11.88 207.542 11.32C208.715 10.7333 210.035 10.44 211.502 10.44ZM228.295 8.36C227.095 8.36 226.108 8.01333 225.335 7.32C224.588 6.6 224.215 5.72 224.215 4.68C224.215 3.61333 224.588 2.73333 225.335 2.04C226.108 1.32 227.095 0.959998 228.295 0.959998C229.468 0.959998 230.428 1.32 231.175 2.04C231.948 2.73333 232.335 3.61333 232.335 4.68C232.335 5.72 231.948 6.6 231.175 7.32C230.428 8.01333 229.468 8.36 228.295 8.36ZM231.695 10.68V33H224.855V10.68H231.695ZM250.252 10.44C252.865 10.44 254.945 11.2933 256.492 13C258.065 14.68 258.852 17 258.852 19.96V33H252.052V20.88C252.052 19.3867 251.665 18.2267 250.892 17.4C250.119 16.5733 249.079 16.16 247.772 16.16C246.465 16.16 245.425 16.5733 244.652 17.4C243.879 18.2267 243.492 19.3867 243.492 20.88V33H236.652V10.68H243.492V13.64C244.185 12.6533 245.119 11.88 246.292 11.32C247.465 10.7333 248.785 10.44 250.252 10.44ZM272.085 10.36C273.658 10.36 275.032 10.68 276.205 11.32C277.405 11.96 278.325 12.8 278.965 13.84V10.68H285.805V32.96C285.805 35.0133 285.392 36.8667 284.565 38.52C283.765 40.2 282.525 41.5333 280.845 42.52C279.192 43.5067 277.125 44 274.645 44C271.338 44 268.658 43.2133 266.605 41.64C264.552 40.0933 263.378 37.9867 263.085 35.32H269.845C270.058 36.1733 270.565 36.84 271.365 37.32C272.165 37.8267 273.152 38.08 274.325 38.08C275.738 38.08 276.858 37.6667 277.685 36.84C278.538 36.04 278.965 34.7467 278.965 32.96V29.8C278.298 30.84 277.378 31.6933 276.205 32.36C275.032 33 273.658 33.32 272.085 33.32C270.245 33.32 268.578 32.8533 267.085 31.92C265.592 30.96 264.405 29.6133 263.525 27.88C262.672 26.12 262.245 24.0933 262.245 21.8C262.245 19.5067 262.672 17.4933 263.525 15.76C264.405 14.0267 265.592 12.6933 267.085 11.76C268.578 10.8267 270.245 10.36 272.085 10.36ZM278.965 21.84C278.965 20.1333 278.485 18.7867 277.525 17.8C276.592 16.8133 275.445 16.32 274.085 16.32C272.725 16.32 271.565 16.8133 270.605 17.8C269.672 18.76 269.205 20.0933 269.205 21.8C269.205 23.5067 269.672 24.8667 270.605 25.88C271.565 26.8667 272.725 27.36 274.085 27.36C275.445 27.36 276.592 26.8667 277.525 25.88C278.485 24.8933 278.965 23.5467 278.965 21.84ZM293.953 33.32C292.753 33.32 291.767 32.9733 290.993 32.28C290.247 31.56 289.873 30.68 289.873 29.64C289.873 28.5733 290.247 27.68 290.993 26.96C291.767 26.24 292.753 25.88 293.953 25.88C295.127 25.88 296.087 26.24 296.833 26.96C297.607 27.68 297.993 28.5733 297.993 29.64C297.993 30.68 297.607 31.56 296.833 32.28C296.087 32.9733 295.127 33.32 293.953 33.32Z" fill="#4B2AA7"/>
</svg>
