<svg width="80" height="64" viewBox="0 0 80 64" fill="none" xmlns="http://www.w3.org/2000/svg">
<path d="M76.3125 46.6625C76.6375 44.9 76.6375 43.1 76.3125 41.3375L79.5375 39.475C79.9125 39.2625 80.075 38.825 79.95 38.4125C79.1125 35.7125 77.675 33.2625 75.8 31.2375C75.5125 30.925 75.05 30.85 74.675 31.0625L71.45 32.925C70.0875 31.7625 68.525 30.8625 66.8375 30.2625V26.5375C66.8375 26.1125 66.5375 25.7375 66.125 25.65C63.3375 25.025 60.5 25.05 57.85 25.65C57.4375 25.7375 57.1375 26.1125 57.1375 26.5375V30.2625C55.45 30.8625 53.8875 31.7625 52.525 32.925L49.3 31.0625C48.9375 30.85 48.4625 30.925 48.175 31.2375C46.3 33.2625 44.8625 35.7125 44.025 38.4125C43.9 38.825 44.075 39.2625 44.4375 39.475L47.6625 41.3375C47.3375 43.1 47.3375 44.9 47.6625 46.6625L44.4375 48.525C44.0625 48.7375 43.9 49.175 44.025 49.5875C44.8625 52.2875 46.3 54.725 48.175 56.7625C48.4625 57.075 48.925 57.15 49.3 56.9375L52.525 55.075C53.8875 56.2375 55.45 57.1375 57.1375 57.7375V61.4625C57.1375 61.8875 57.4375 62.2625 57.85 62.35C60.6375 62.975 63.475 62.95 66.125 62.35C66.5375 62.2625 66.8375 61.8875 66.8375 61.4625V57.7375C68.525 57.1375 70.0875 56.2375 71.45 55.075L74.675 56.9375C75.0375 57.15 75.5125 57.075 75.8 56.7625C77.675 54.7375 79.1125 52.2875 79.95 49.5875C80.075 49.175 79.9 48.7375 79.5375 48.525L76.3125 46.6625ZM62 50.0625C58.65 50.0625 55.9375 47.3375 55.9375 44C55.9375 40.6625 58.6625 37.9375 62 37.9375C65.3375 37.9375 68.0625 40.6625 68.0625 44C68.0625 47.3375 65.35 50.0625 62 50.0625ZM28 32C36.8375 32 44 24.8375 44 16C44 7.1625 36.8375 0 28 0C19.1625 0 12 7.1625 12 16C12 24.8375 19.1625 32 28 32ZM53.15 60.3125C52.8625 60.1625 52.575 59.9875 52.3 59.825L51.3125 60.4C50.5625 60.825 49.7125 61.0625 48.8625 61.0625C47.5 61.0625 46.1875 60.4875 45.25 59.4875C42.9625 57.0125 41.2125 54 40.225 50.7875C39.5375 48.575 40.4625 46.2375 42.4625 45.075L43.45 44.5C43.4375 44.175 43.4375 43.85 43.45 43.525L42.4625 42.95C40.4625 41.8 39.5375 39.45 40.225 37.2375C40.3375 36.875 40.5 36.5125 40.625 36.15C40.15 36.1125 39.6875 36 39.2 36H37.1125C34.3375 37.275 31.25 38 28 38C24.75 38 21.675 37.275 18.8875 36H16.8C7.525 36 0 43.525 0 52.8V58C0 61.3125 2.6875 64 6 64H50C51.2625 64 52.4375 63.6 53.4 62.9375C53.25 62.4625 53.15 61.975 53.15 61.4625V60.3125Z" fill="#5627DA"/>
</svg>