<svg width="76" height="62" viewBox="0 0 76 62" fill="none" xmlns="http://www.w3.org/2000/svg">
<g clip-path="url(#clip0_3_33)">
<path d="M72.1447 44.9294C72.4489 43.255 72.4489 41.545 72.1447 39.8706L75.1632 38.1013C75.5142 37.8994 75.6663 37.4838 75.5493 37.0919C74.7654 34.5269 73.42 32.1994 71.6651 30.2756C71.396 29.9788 70.9631 29.9075 70.6121 30.1094L67.5936 31.8788C66.3184 30.7744 64.8559 29.9194 63.2765 29.3494V25.8106C63.2765 25.4069 62.9957 25.0506 62.6096 24.9675C60.0006 24.3738 57.3449 24.3975 54.8646 24.9675C54.4785 25.0506 54.1977 25.4069 54.1977 25.8106V29.3494C52.6183 29.9194 51.1558 30.7744 49.8806 31.8788L46.8621 30.1094C46.5228 29.9075 46.0782 29.9788 45.8091 30.2756C44.0542 32.1994 42.7088 34.5269 41.9249 37.0919C41.8079 37.4838 41.9717 37.8994 42.311 38.1013L45.3295 39.8706C45.0253 41.545 45.0253 43.255 45.3295 44.9294L42.311 46.6988C41.96 46.9006 41.8079 47.3163 41.9249 47.7081C42.7088 50.2731 44.0542 52.5888 45.8091 54.5244C46.0782 54.8213 46.5111 54.8925 46.8621 54.6906L49.8806 52.9213C51.1558 54.0256 52.6183 54.8806 54.1977 55.4506V58.9894C54.1977 59.3931 54.4785 59.7494 54.8646 59.8325C57.4735 60.4263 60.1293 60.4025 62.6096 59.8325C62.9957 59.7494 63.2765 59.3931 63.2765 58.9894V55.4506C64.8559 54.8806 66.3184 54.0256 67.5936 52.9213L70.6121 54.6906C70.9514 54.8925 71.396 54.8213 71.6651 54.5244C73.42 52.6006 74.7654 50.2731 75.5493 47.7081C75.6663 47.3163 75.5025 46.9006 75.1632 46.6988L72.1447 44.9294ZM58.7488 48.1594C55.6133 48.1594 53.0745 45.5706 53.0745 42.4C53.0745 39.2294 55.625 36.6406 58.7488 36.6406C61.8726 36.6406 64.4231 39.2294 64.4231 42.4C64.4231 45.5706 61.8843 48.1594 58.7488 48.1594ZM26.9261 31C35.1977 31 41.9015 24.1956 41.9015 15.8C41.9015 7.40438 35.1977 0.600006 26.9261 0.600006C18.6546 0.600006 11.9508 7.40438 11.9508 15.8C11.9508 24.1956 18.6546 31 26.9261 31ZM50.4655 57.8969C50.1965 57.7544 49.9274 57.5881 49.67 57.4338L48.7457 57.98C48.0437 58.3838 47.2482 58.6094 46.4526 58.6094C45.1774 58.6094 43.9489 58.0631 43.0715 57.1131C40.9304 54.7619 39.2925 51.9 38.3683 48.8481C37.7248 46.7463 38.5905 44.5256 40.4625 43.4213L41.3867 42.875C41.375 42.5663 41.375 42.2575 41.3867 41.9488L40.4625 41.4025C38.5905 40.31 37.7248 38.0775 38.3683 35.9756C38.4735 35.6313 38.6256 35.2869 38.7426 34.9425C38.2981 34.9069 37.8652 34.8 37.4089 34.8H35.4551C32.8578 36.0113 29.968 36.7 26.9261 36.7C23.8843 36.7 21.0062 36.0113 18.3972 34.8H16.4434C7.76234 34.8 0.719238 41.9488 0.719238 50.76V55.7C0.719238 58.8469 3.23463 61.4 6.335 61.4H47.5173C48.6989 61.4 49.7987 61.02 50.6995 60.3906C50.5591 59.9394 50.4655 59.4763 50.4655 58.9894V57.8969Z" fill="#FBF2F2"/>
</g>
<defs>
<clipPath id="clip0_3_33">
<rect width="74.8768" height="60.8" fill="white" transform="translate(0.719238 0.600006)"/>
</clipPath>
</defs>
</svg>